<?xml version="1.0" standalone="no"?>
<!DOCTYPE svg PUBLIC "-//W3C//DTD SVG 1.1//EN" "http://www.w3.org/Graphics/SVG/1.1/DTD/svg11.dtd" >
<!--
2013-9-30: Created.
-->
<svg>
<metadata>
Created by iconfont
</metadata>
<defs>

<font id="iconfont" horiz-adv-x="1024" >
  <font-face
    font-family="iconfont"
    font-weight="500"
    font-stretch="normal"
    units-per-em="1024"
    ascent="896"
    descent="-128"
  />
    <missing-glyph />
    
    <glyph glyph-name="wendu" unicode="&#58926;" d="M615.622 306.986V730.778c0 17.673-14.327 32-32 32H414.9c-17.673 0-32-14.327-32-32v-425.62c-40.723-34.43-64.584-85.204-64.584-138.962 0-100.355 81.645-182 182-182s182 81.645 182 182c-0.001 54.925-24.643 106.364-66.694 140.79z m-115.307-258.79c-65.065 0-118 52.935-118 118 0 38.593 19.005 74.832 50.839 96.941A32.003 32.003 0 0 1 446.9 289.42V698.778h104.722v-407.859a32 32 0 0 1 14.202-26.594c32.868-21.998 52.491-58.682 52.491-98.129 0-65.065-52.934-118-118-118zM516.315 225.577V429.215c0 8.836-7.164 16-16 16s-16-7.164-16-16v-203.638c-26.765-7.069-46.5-31.438-46.5-60.424 0-34.518 27.982-62.5 62.5-62.5s62.5 27.982 62.5 62.5c0 28.986-19.735 53.355-46.5 60.424z"  horiz-adv-x="1024" />

    
    <glyph glyph-name="wendu1" unicode="&#58988;" d="M613.14042 285.778352V777.887222c0 56.482882-45.952284 102.438363-102.435166 102.438363-56.489276 0-102.444757-45.955481-102.444756-102.438363v-492.10887c-67.051844-37.087272-109.637788-108.461328-109.637789-185.685717 0-116.939515 95.139833-212.076151 212.082545-212.076151 116.936318 0 212.072954 95.136636 212.072955 212.076151 0 77.230783-42.582748 148.601642-109.637789 185.685717zM510.705254-67.226874c-92.262621 0-167.325903 75.060086-167.325903 167.319509 0 64.75327 37.963223 124.298786 96.719104 151.699441a22.378321 22.378321 0 0 1 12.918685 20.281153v214.250045h57.68172a22.378321 22.378321 0 1 1 0 44.756642h-57.68172v31.96903h57.68172a22.378321 22.378321 0 1 1 0 44.756642h-57.68172v31.96903h57.68172a22.378321 22.378321 0 1 1 0 44.756642h-57.68172v31.96903h57.68172a22.378321 22.378321 0 1 1 0 44.756642h-57.68172v16.633487c0 31.805988 25.87893 57.681721 57.688114 57.68172 31.802791 0 57.678524-25.875733 57.678524-57.68172v-505.813993a22.371927 22.371927 0 0 1 12.921882-20.281153c58.752683-27.394262 96.715906-86.939777 96.715907-151.699441 0-92.262621-75.060086-167.322706-167.316313-167.322706zM622.884581 118.848865a22.378321 22.378321 0 0 1-22.378321-22.378321c0-49.520027-40.287372-89.807399-89.8074-89.807399s-89.807399 40.287372-89.807399 89.807399c0 34.756729 20.380257 66.719366 51.917705 81.428316a22.378321 22.378321 0 0 1-18.912878 40.565503c-47.237439-22.029859-77.761469-69.913072-77.761469-121.990622 0-74.196922 60.363922-134.564041 134.564041-134.564041s134.564041 60.363922 134.564042 134.564041a22.378321 22.378321 0 0 1-22.378321 22.375124z"  horiz-adv-x="1024" />

    
    <glyph glyph-name="wendu2" unicode="&#58897;" d="M691.6 664.6H655c-10.9 0-19.8 8.9-19.8 19.8s8.9 19.8 19.8 19.8h36.6c10.9 0 19.8-8.9 19.8-19.8s-8.9-19.8-19.8-19.8zM691.6 590.3H655c-10.9 0-19.8 8.9-19.8 19.8s8.9 19.8 19.8 19.8h36.6c10.9 0 19.8-8.9 19.8-19.8s-8.9-19.8-19.8-19.8zM691.6 516H655c-10.9 0-19.8 8.9-19.8 19.8s8.9 19.8 19.8 19.8h36.6c10.9 0 19.8-8.9 19.8-19.8 0-10.8-8.9-19.8-19.8-19.8zM603.3 306.3V736.5c0 51.9-42.2 94.1-94.1 94.1-51.9 0-94.1-42.2-94.1-94.1v-430.2c-61-33.4-102.4-98.2-102.4-172.5 0-108.4 88.2-196.5 196.5-196.5s196.5 88.2 196.5 196.5c0 74.3-41.5 139.1-102.4 172.5z m-94.2-327.7c-85.6 0-155.3 69.7-155.3 155.3 0 50.3 24 95 61.2 123.4 12.4 9.5 26.3 17.2 41.2 22.6V736.5c0 29.2 23.7 52.9 52.9 52.9s52.9-23.7 52.9-52.9V279.9c14.9-5.4 28.8-13.1 41.2-22.6 37.1-28.4 61.2-73.1 61.2-123.4 0-85.7-69.6-155.3-155.3-155.3zM509.4 129.5m-83.3 0a83.3 83.3 0 1 1 166.6 0 83.3 83.3 0 1 1-166.6 0ZM613.3 128.8c-9.5 1.8-18.7-3.7-21.7-12.7-6.4-39.6-40.8-69.9-82.2-69.9-46 0-83.3 37.3-83.3 83.3s37.3 83.3 83.3 83.3c6.7 0 13.2-0.8 19.4-2.3 0.1 0.8 0.2 1.6 0.2 2.3V688.3c0 10.5-8.6 19-19 19-10.5 0-19-8.6-19-19v-440.1c-0.9 0-1.9-0.1-2.8-0.3-49-9.1-86.8-46.6-96.3-95.5-12.7-65.2 30.1-128.6 95.3-141.2 7.7-1.5 15.4-2.2 23-2.2 56.5 0 107.1 40 118.2 97.5 1.9 10.3-4.8 20.3-15.1 22.3z"  horiz-adv-x="1024" />

    
    <glyph glyph-name="wendu3" unicode="&#58912;" d="M543.096963 265.661556V540.334733c0 16.698369-13.598672 30.297041-30.297041 30.297041h-2.399766c-16.298408 0-29.397129-13.198711-29.397129-29.397129v-275.573089c-45.195586-13.098721-78.292354-53.494776-78.292354-101.690069 0-58.894249 48.895225-106.589591 109.389317-106.589591 60.394102 0 109.289327 47.795332 109.289327 106.589591-0.09999 48.195293-33.196758 88.491358-78.292354 101.690069zM703.981252 387.349673c-6.799336 5.599453-10.798945 13.198711-10.798946 20.997949V718.917293C693.182306 816.607753 611.890245 896 512 896c-99.890245 0-181.182306-79.392247-181.182306-177.082707v-301.77053c0-13.098721-5.399473-25.197539-14.698565-33.096768-65.493604-55.2946-102.989942-135.586759-102.989942-220.178498 0-160.884289 134.086906-291.871497 298.970803-291.871497s298.970804 130.887218 298.970804 291.871497C810.970804 250.463041 771.974612 331.955083 703.981252 387.349673zM512-35.309052c-112.988966 0-204.780002 89.39127-204.780002 199.280539 0 68.493311 35.796504 131.487159 95.690655 168.383556l14.498584 8.899131c4.699541 2.899717 7.599258 8.099209 7.599258 13.598672V718.917293c0 46.59545 39.096182 84.491749 87.091495 84.491749 47.995313 0 87.091495-37.896299 87.091495-84.491749v-364.064447c0-5.499463 2.899717-10.698955 7.599258-13.598672l14.498584-8.899131c59.894151-36.896397 95.590665-99.790255 95.590665-168.383556-0.09999-109.889269-91.991017-199.280539-204.879992-199.280539z"  horiz-adv-x="1024" />

    
    <glyph glyph-name="weibiaoti-" unicode="&#58913;" d="M877.689404 896H146.297694C65.46917 896 0 830.459871 0 749.702306V18.239637c0-80.764017 65.46917-146.239637 146.310596-146.239637h731.39816c80.822074 0 146.304145 65.475621 146.304146 146.239637V749.702306C1023.993549 830.459871 958.53083 896 877.689404 896zM362.386594 39.482122c-106.457553 0-193.078896 83.492705-193.078896 186.105581 0 10.256772 8.618269 18.558952 19.249187 18.558952s19.255638-8.30218 19.255639-18.558952c0-82.144488 69.333199-148.987678 154.56762-148.987678 85.221519 0 154.561169 66.836739 154.561169 148.987678 0 10.256772 8.618269 18.558952 19.249187 18.558952s19.255638-8.30218 19.255638-18.558952c0.006451-102.612876-86.608441-186.105581-193.059544-186.105581zM362.734938 39.430515c-16.44954 0-32.989391 2.038453-49.309916 6.160514-49.884037 12.624216-91.698123 43.201008-117.701298 86.131083-26.028978 42.89782-33.163563 93.020537-20.08134 141.111251 13.082223 48.103616 44.813708 88.401764 89.350031 113.476023 9.179488 5.147738 20.971551 2.186821 26.332166-6.663676 5.373516-8.844047 2.270682-20.216807-6.915258-25.383898-35.64067-20.068439-61.043921-52.335341-71.52002-90.840167-10.463198-38.504826-4.747789-78.622351 16.081845-112.979312 20.829633-34.356961 54.289933-58.837747 94.220385-68.946151 39.936903-10.101953 81.570367-4.586519 117.198136 15.481921 9.173038 5.167091 20.984453 2.206174 26.338616-6.650775 5.373516-8.844047 2.283583-20.210357-6.895905-25.390349a197.568653 197.568653 0 0 0-97.097442-25.506464zM362.0318 39.430515a197.388031 197.388031 0 0 0-97.097442 25.512915c-9.185939 5.179992-12.275872 16.539851-6.908807 25.390349 5.367066 8.856948 17.178481 11.817866 26.338617 6.650774 35.647121-20.081341 77.274134-25.590324 117.217488-15.48192s73.403654 34.582739 94.233287 68.946151c20.829633 34.356961 26.52569 74.474487 16.056041 112.979312-10.476099 38.504826-35.885801 70.771727-71.526471 90.840167-9.185939 5.167091-12.275872 16.533401-6.915258 25.383898 5.360615 8.850498 17.165579 11.817866 26.332166 6.663676 44.529873-25.07426 76.267809-65.372408 89.356482-113.476023 13.082223-48.090714 5.96699-98.213431-20.055537-141.124153-26.009626-42.910722-67.823712-73.493965-117.714199-86.118181-16.333426-4.128512-32.873277-6.166965-49.316367-6.166965zM274.700869 351.720197c-10.630918 0-19.249187 8.30863-19.249187 18.558951V624.776112c0 10.250321 8.618269 18.558952 19.249187 18.558952s19.255638-8.30863 19.255638-18.558952v-254.496964c0-10.250321-8.62472-18.558952-19.255638-18.558951zM450.104574 351.720197c-10.624468 0-19.249187 8.30863-19.249188 18.558951V624.776112c0 10.250321 8.62472 18.558952 19.249188 18.558952 10.630918 0 19.255638-8.30863 19.255638-18.558952v-254.496964c0-10.250321-8.618269-18.558952-19.255638-18.558951zM450.104574 606.907396c-10.624468 0-19.249187 8.30863-19.249188 18.558951 0 36.382512-30.705808 65.985234-68.442988 65.985234S293.962958 661.84886 293.962958 625.466347c0-10.250321-8.62472-18.558952-19.255638-18.558951s-19.249187 8.30863-19.249187 18.558951c0 56.850901 47.981051 103.096686 106.960715 103.096687 58.973214 0 106.954265-46.245786 106.954265-103.096687-0.012902-10.250321-8.63117-18.558952-19.268539-18.558951zM450.104574 586.497064H362.405947c-10.630918 0-19.255638 8.30863-19.255638 18.558952 0 10.250321 8.62472 18.558952 19.255638 18.558952h87.698627c10.630918 0 19.255638-8.30863 19.255638-18.558952 0-10.250321-8.618269-18.558952-19.255638-18.558952zM450.104574 522.421267H362.405947c-10.630918 0-19.255638 8.30863-19.255638 18.558952 0 10.250321 8.62472 18.558952 19.255638 18.558952h87.698627c10.630918 0 19.255638-8.30863 19.255638-18.558952 0-10.250321-8.618269-18.558952-19.255638-18.558952zM450.104574 459.248583H362.405947c-10.630918 0-19.255638 8.30863-19.255638 18.558951 0 10.250321 8.62472 18.558952 19.255638 18.558952h87.698627c10.630918 0 19.255638-8.30863 19.255638-18.558952 0-10.256772-8.618269-18.558952-19.255638-18.558951zM612.890513 440.289681c-29.409197 0-53.328764 23.068061-53.328764 51.419327 0 28.357717 23.919567 51.419327 53.328764 51.419328 29.42855 0 53.367469-23.068061 53.367469-51.419328 0.006451-28.357717-23.938919-51.419327-53.367469-51.419327z m0 65.7143c-8.173164 0-14.811037-6.418546-14.811037-14.301423s6.637873-14.301424 14.811037-14.301424c8.198967 0 14.862643 6.418546 14.862643 14.301424s-6.663676 14.301424-14.862643 14.301423zM660.871564 293.546882c-6.61207 0-13.049969 3.296359-16.630163 9.19239-16.256016 26.751468-20.713519 58.012045-12.566158 88.001814 8.160262 30.009122 27.957767 55.14789 55.754264 70.797531 27.764243 15.636739 60.192415 19.91362 91.278821 12.062996 31.112209-7.863525 57.186342-26.93209 73.410105-53.702911 5.373516-8.850498 2.270682-20.216807-6.915258-25.390349-9.160136-5.167091-20.958649-2.186821-26.325715 6.663677-11.037319 18.204158-28.770568 31.170266-49.929192 36.52443a84.079728 84.079728 0 0 1-62.088951-8.205418c-18.913746-10.64382-32.383016-27.744891-37.930704-48.148772-5.541237-20.390979-2.509361-41.646365 8.540859-59.837621 5.379967-8.844047 2.296485-20.216807-6.876553-25.390349a19.700743 19.700743 0 0 0-9.721355-2.567418zM747.970266 245.223939c-21.094116 0-41.872143 5.379967-60.560111 15.914123-27.777145 15.662543-47.5682 40.79486-55.728462 70.771728-8.166713 29.99622-3.702759 61.256797 12.553257 88.021166 5.373516 8.850498 17.165579 11.804964 26.345068 6.637874 9.179488-5.173542 12.25652-16.546302 6.876552-25.390349-11.056671-18.204158-14.088547-39.453093-8.534408-59.844073 5.554139-20.39743 19.023409-37.498501 37.924254-48.155222a83.989417 83.989417 0 0 1 62.08895-8.211868c21.158624 5.354164 38.891874 18.333174 49.929192 36.537331 5.367066 8.850498 17.165579 11.817866 26.325715 6.663677 9.185939-5.179992 12.288774-16.539851 6.915258-25.390349-16.223762-26.77082-42.297896-45.845836-73.410105-53.709362a125.422905 125.422905 0 0 0-30.72516-3.844676z"  horiz-adv-x="1024" />

    
    <glyph glyph-name="wendu4" unicode="&#59028;" d="M552.96-110.592h-40.96L304.128 10.24l-20.48 35.84V285.696l17.408 32.768 66.56 48.128v471.04l40.96 40.96h249.856l40.96-40.96v-470.016l66.56-48.128 17.408-32.768V46.08l-20.48-35.84L552.96-110.592zM365.568 69.632L532.48-27.648l166.912 96.256V265.216l-66.56 48.128-17.408 32.768v450.56H448.512v-450.56l-17.408-32.768-66.56-48.128v-195.584zM563.2 185.344V539.648h-61.44v-354.304c-18.432-10.24-30.72-30.72-30.72-53.248 0-33.792 27.648-61.44 61.44-61.44s61.44 27.648 61.44 61.44c0 22.528-12.288 41.984-30.72 53.248zM428.032 748.544h61.44v-40.96h-61.44zM428.032 683.008h61.44v-40.96h-61.44zM428.032 617.472h61.44v-40.96h-61.44z"  horiz-adv-x="1024" />

    
    <glyph glyph-name="wenduji" unicode="&#59038;" d="M640 270.4V704c0 70.6-57.4 128-128 128s-128-57.4-128-128v-433.6c-40.2-36.1-64-87.9-64-142.4 0-105.9 86.1-192 192-192s192 86.1 192 192c0 54.6-23.8 106.4-64 142.4zM512 0c-70.7 0-128 57.3-128 128 0 47.3 25.9 88.1 64 110.3V352h32v32h-32v64h64v32h-64v64h32v32h-32v64h64v32h-64v32c0 35.4 28.6 64 64 64 35.3 0 64-28.6 64-64v-465.7c38.1-22.2 64-63 64-110.3 0-70.7-57.3-128-128-128z"  horiz-adv-x="1024" />

    
    <glyph glyph-name="wendu5" unicode="&#58969;" d="M512 768c70.4 0 128-57.6 128-128v-304c38.4-35.2 64-86.4 64-144 0-105.6-86.4-192-192-192s-192 86.4-192 192c0 57.6 25.6 108.8 64 144V640c0 70.4 57.6 128 128 128z m0-64c-35.2 0-60.8-25.6-64-60.8v-336l-22.4-19.2c-25.6-25.6-41.6-57.6-41.6-96 0-70.4 57.6-128 128-128s128 57.6 128 128c0 35.2-12.8 67.2-38.4 89.6l-3.2 6.4-22.4 19.2V640c0 35.2-28.8 64-64 64z m224-256c19.2 0 32-12.8 32-32 0-16-12.8-28.8-28.8-32H704c-19.2 0-32 12.8-32 32 0 16 12.8 28.8 28.8 32H736z m0 128c19.2 0 32-12.8 32-32 0-16-12.8-28.8-28.8-32H704c-19.2 0-32 12.8-32 32 0 16 12.8 28.8 28.8 32H736z m0 128c19.2 0 32-12.8 32-32 0-16-12.8-28.8-28.8-32H704c-19.2 0-32 12.8-32 32 0 16 12.8 28.8 28.8 32H736zM512 512c16 0 28.8-12.8 32-28.8v-217.6c28.8-12.8 48-41.6 48-73.6 0-44.8-35.2-80-80-80s-80 35.2-80 80c0 32 19.2 60.8 48 73.6v217.6c3.2 16 16 28.8 32 28.8z"  horiz-adv-x="1024" />

    
    <glyph glyph-name="wendu6" unicode="&#59407;" d="M383.044267 626.722133m30.344533 0l60.672 0q30.344533 0 30.344533-30.344533l0 0q0-30.344533-30.344533-30.344533l-60.672 0q-30.344533 0-30.344533 30.344533l0 0q0 30.344533 30.344533 30.344533ZM383.044267 490.1888m30.344533 0l60.672 0q30.344533 0 30.344533-30.344533l0 0q0-30.344533-30.344533-30.344534l-60.672 0q-30.344533 0-30.344533 30.344534l0 0q0 30.344533 30.344533 30.344533ZM507.562667 827.665067a147.9168 147.9168 0 0 1-143.479467-147.848534v-312.951466l-4.283733-3.464534A238.557867 238.557867 0 0 1 273.066667 179.2c0-131.959467 106.973867-238.933333 238.933333-238.933333s238.933333 106.973867 238.933333 238.933333l-0.085333 6.1952a238.5408 238.5408 0 0 1-86.647467 178.005333l-4.3008 3.464534V679.816533A147.9168 147.9168 0 0 1 512 827.733333l-4.437333-0.068266zM512 759.466667a79.650133 79.650133 0 0 0 79.650133-79.650134V349.525333a34.133333 34.133333 0 0 1 15.138134-28.3648A170.4448 170.4448 0 0 0 682.666667 179.2c0-94.2592-76.407467-170.666667-170.666667-170.666667S341.333333 84.9408 341.333333 179.2c0 57.685333 28.808533 110.421333 75.8784 141.943467a34.133333 34.133333 0 0 1 15.138134 28.3648V679.816533A79.650133 79.650133 0 0 0 512 759.466667zM426.666667 230.4a34.133333 34.133333 0 0 0 34.133333-34.389333l0.085333-3.072a64.477867 64.477867 0 0 1 64.392534-61.149867v-68.266667l-4.215467 0.068267A132.744533 132.744533 0 0 0 392.533333 196.266667l0.085334 2.56A34.133333 34.133333 0 0 0 426.666667 230.4z"  horiz-adv-x="1024" />

    
    <glyph glyph-name="tianqi" unicode="&#58891;" d="M140.2 433.1l5.7 2.9c12.7 91.8 72.6 152.4 166.1 163.2 34.2 3.9 65.3-1.3 101.6-15.4 43.3 65.5 113.7 100.1 195.3 110.4-58.6 87.8-158.5 145.6-272 145.6C156.3 839.8 10 693.5 10 513c0-48.3 10.5-94.1 29.2-135.3 32.7 25.4 58.7 47.7 101 55.4zM0 162.8c0-129.7 105-234.7 234.7-234.7h554.7c129.7 0 234.7 105 234.7 234.7 0 99.6-62.1 184.5-149.5 218.7l0.2 5.3c0 135.5-109.9 245.3-245.3 245.3-85.7 0-161.1-44-205-110.5-23.7 16-52.3 25.2-83 25.2-82.7 0-149.5-66.8-149.5-149.3v-3.9C82.8 373.6 0 277.8 0 162.8z"  horiz-adv-x="1024" />

    
    <glyph glyph-name="tianqi-yintian" unicode="&#58955;" d="M287.844775 211.702519c-17.850108 1.10527-35.967323 8.235344-52.592965 19.13092A142.725553 142.725553 0 0 0 167.199153 383.544347a57.79261 57.79261 0 0 0 3.262172 12.652089c17.917833 58.183247 72.075513 100.474447 136.108021 100.474447h0.119738a177.714387 177.714387 0 0 0-0.119738 6.164046c0 96.254916 77.984914 174.285342 174.184567 174.285342 86.894256 0 154.65705-53.313016 173.690447-138.05037 22.094561 10.735204 45.240212 15.283606 71.447026 15.283606 92.528423 0 167.535069-82.445545 167.535069-175.024897a167.040406 167.040406 0 0 0-42.401185-111.443167c-26.082201-31.402667-64.506582-56.18455-109.855154-56.18455h-453.323174zM540.459073 212.320169c15.155742-1.099852 175.446959 0.297989 196.05699-0.167957 88.800847-1.603725 156.910392 82.629757 156.910392 171.16458 0 88.472516-79.265185 170.998248-163.899598 170.998247-39.583831 0-55.45854-6.815289-74.892868-15.349706-4.719069-19.780538-101.668571-304.07382-114.174916-326.645164z"  horiz-adv-x="1024" />

    
    <glyph glyph-name="tianqi-duoyunlan" unicode="&#58958;" d="M344.052622 852.114286a9.650523 9.650523 0 0 0 9.650523-9.650523V771.711323a9.650523 9.650523 0 1 0-19.301046 0V842.463763A9.650523 9.650523 0 0 0 344.052622 852.114286zM233.505592 726.776144a9.650523 9.650523 0 1 0-13.647374-13.647915l-50.025922 50.027005A9.650523 9.650523 0 1 0 183.47967 776.804233m50.018878-268.01385l0.005418-0.005418a10.750916 10.750916 0 0 0 0-15.202336l-48.4715-48.472585a10.749291 10.749291 0 0 0-15.201795 0l-0.005418 0.005418a10.749833 10.749833 0 0 0 0 15.202337l48.4715 48.472584a10.749291 10.749291 0 0 0 15.201795-0.001084z m221.640195 217.944584a9.651606 9.651606 0 0 1 13.647373-13.653333l50.025922 50.041092a9.651606 9.651606 0 0 1-13.647373 13.653333M113.137371 624.922277h70.851048a9.653774 9.653774 0 0 0 0-19.307547h-70.851048a9.653774 9.653774 0 1 0 0 19.307547zM774.767069 215.581799c43.723175 0 80.771386 22.842243 105.916275 51.785143 25.421206 27.301249 36.696042 63.282116 36.696042 102.717494 0 85.328999-64.148995 148.414442-150.137905 148.90152-37.855492 0.214011-65.541418-16.261012-86.839534-26.155886C667.750942 569.566138 609.848889 651.594497 511.952863 652.379022 413.713338 653.165714 352.592457 560.626455 352.592457 471.911754c0-1.902798 0.047137-3.792593 0.115945-5.681303h-0.115945c-61.733655 0-114.955649-26.972919-132.230366-80.602345a51.396673 51.396673 0 0 1-3.145143-11.661139c-1.91255-8.732715-5.622248-25.43421-3.970302-41.731521 5.078281-50.100148 24.422129-76.296127 65.395132-99.019175 16.029122-10.044952 33.496178-16.616974 50.705337-17.635556h445.419954z m-466.834015-28.249397c-18.951043 1.175704-38.185448 8.739217-55.836174 20.306624a151.374832 151.374832 0 0 0-72.248888 162.02389 61.270959 61.270959 0 0 0 3.463178 13.423611C201.061587 440.684631 252.297888 483.594565 314.293232 489.088948 254.930489 502.082912 211.247407 554.959238 211.247407 618.653122c0 73.576296 59.519865 133.225651 132.939581 133.22565 53.382366 0 99.401685-31.5392 120.550265-77.032431a185.150578 185.150578 0 0 0 48.003386 6.304372c92.251564 0 164.191628-56.567602 184.400728-146.470467 23.454476 11.390239 48.030476 16.216584 75.85727 16.216584 98.228148 0 177.861757-87.476148 177.861757-185.704297a177.175297 177.175297 0 0 0-45.012656-118.24491c-27.691344-33.315217-68.488804-59.614138-116.633059-59.614137h-481.28z m36.283192 540.15404c-60.196571 0-108.997486-48.850218-108.997486-109.110721a109.091759 109.091759 0 0 1 93.130362-107.951272c5.376813 70.837503 50.670121 130.513947 113.436986 156.614569a108.975814 108.975814 0 0 1-97.569862 60.447424zM895.133122 247.596698c-27.274159-32.773418-67.459386-58.644317-114.888466-58.644317H306.139158c-18.668224 1.154032-37.616017 8.598349-55.003971 19.976127-44.446476 25.730032-74.343484 73.75509-74.343483 128.758518a149.10632 149.10632 0 0 0 3.172233 30.64469 60.217702 60.217702 0 0 0 3.413333 13.206891c18.739742 60.73837 75.379403 104.881439 142.346836 104.88144h0.125697c-0.074768 2.136855-0.125697 4.280212-0.125697 6.434404 0 100.476614 81.559704 181.929041 182.169058 181.929041 90.878104 0 161.745405-55.653046 181.651098-144.102264 23.107725 11.206569 47.315302 15.954353 74.72491 15.954353 96.765291 0 175.21236-86.062053 175.21236-182.701647a174.191069 174.191069 0 0 0-44.34841-116.337236zM884.215873 443.056085c-3.28872 43.820698-56.867217 84.737354-113.766942 82.050573-18.583704-0.962777-15.538794-3.880906-15.538793-3.880906s97.968085-7.910265 122.392381-102.833439c2.654815-10.578624 8.663365 1.3312 6.913354 24.663772z"  horiz-adv-x="1024" />

    
    <glyph glyph-name="tianqi-ye" unicode="&#58904;" d="M821.248 258.56c-217.6 0-393.728 176.128-393.728 393.728 0 43.008 7.168 84.48 19.968 123.392-178.176-37.376-312.32-195.584-312.32-385.024 0-217.6 176.128-393.728 393.728-393.728 174.08 0 321.536 113.152 373.76 270.336-26.624-5.632-53.76-8.704-81.408-8.704z"  horiz-adv-x="1024" />

    
    <glyph glyph-name="tianqitubiao_zhongyu" unicode="&#58898;" d="M731.428571 599.771429c-5.12 0-9.508571 0-14.628571-0.731429-32.182857 85.577143-114.834286 147.017143-212.114286 147.017143-125.074286 0-226.742857-101.668571-226.742857-226.742857 0-8.777143 0.731429-17.554286 1.462857-26.331429-12.434286 2.925714-24.868571 4.388571-38.034285 4.388572-97.28 0-175.542857-78.262857-175.542858-175.542858s78.262857-175.542857 175.542858-175.542857h490.057142c125.074286 0 226.742857 101.668571 226.742858 226.742857s-101.668571 226.742857-226.742858 226.742858zM482.742857 58.514286c0-20.48 13.165714-36.571429 29.257143-36.571429s29.257143 16.091429 29.257143 36.571429-29.257143 51.2-29.257143 51.2-29.257143-30.72-29.257143-51.2zM380.342857 58.514286c0-20.48 13.165714-36.571429 29.257143-36.571429s29.257143 16.091429 29.257143 36.571429-29.257143 51.2-29.257143 51.2-29.257143-30.72-29.257143-51.2zM585.142857 58.514286c0-20.48 13.165714-36.571429 29.257143-36.571429s29.257143 16.091429 29.257143 36.571429-29.257143 51.2-29.257143 51.2-29.257143-30.72-29.257143-51.2z"  horiz-adv-x="1024" />

    
    <glyph glyph-name="tianqitubiao_duoyun" unicode="&#58899;" d="M405.942857 748.982857l11.702857-38.765714C438.857143 638.537143 525.165714 610.742857 584.411429 656.091429l32.182857 24.868571-13.897143-38.034286C577.828571 572.708571 631.222857 498.834286 705.828571 501.028571l40.96 1.462858-33.645714-22.674286c-61.44-42.422857-61.44-133.12 0-175.542857l33.645714-22.674286-40.96 1.462857c-74.605714 2.194286-128-71.68-103.131428-141.897143l13.897143-38.034285-32.182857 24.868571c-59.245714 45.348571-145.554286 17.554286-166.765715-54.125714l-11.702857-38.765715-11.702857 38.765715c-21.211429 71.68-107.52 99.474286-166.765714 54.125714l-32.182857-24.868571 13.897142 38.034285c24.868571 70.217143-28.525714 144.091429-103.131428 141.897143l-40.96-1.462857 33.645714 22.674286c61.44 42.422857 61.44 133.12 0 175.542857L65.097143 501.028571l40.96-1.462857c74.605714-2.194286 128 71.68 103.131428 141.897143l-13.897142 38.034286 32.182857-24.868572c59.245714-45.348571 145.554286-17.554286 166.765714 54.125715l11.702857 40.228571zM405.942857 390.582857m-236.982857 0a236.982857 236.982857 0 1 1 473.965714 0 236.982857 236.982857 0 1 1-473.965714 0ZM732.16 472.502857c-5.12 0-9.508571 0-14.628571-0.731428-32.182857 85.577143-114.834286 147.017143-212.114286 147.017142-125.074286 0-226.742857-101.668571-226.742857-226.742857 0-8.777143 0.731429-17.554286 1.462857-26.331428-12.434286 2.925714-24.868571 4.388571-38.034286 4.388571-97.28 0-175.542857-78.262857-175.542857-175.542857s78.262857-175.542857 175.542857-175.542857h490.057143c125.074286 0 226.742857 101.668571 226.742857 226.742857s-100.937143 226.742857-226.742857 226.742857z"  horiz-adv-x="1024" />

    
    <glyph glyph-name="tianqitubiao_daxue" unicode="&#58900;" d="M731.428571 599.771429c-5.12 0-9.508571 0-14.628571-0.731429-32.182857 85.577143-114.834286 147.017143-212.114286 147.017143-125.074286 0-226.742857-101.668571-226.742857-226.742857 0-8.777143 0.731429-17.554286 1.462857-26.331429-12.434286 2.925714-24.868571 4.388571-38.034285 4.388572-97.28 0-175.542857-78.262857-175.542858-175.542858s78.262857-175.542857 175.542858-175.542857h490.057142c125.074286 0 226.742857 101.668571 226.742858 226.742857s-101.668571 226.742857-226.742858 226.742858zM557.348571 87.771429c-2.194286 3.657143-6.582857 4.388571-10.24 2.925714l-20.48-11.702857v24.137143c0 3.657143-3.657143 7.314286-7.314285 7.314285s-7.314286-3.657143-7.314286-7.314285v-24.137143l-20.48 11.702857c-3.657143 2.194286-8.045714 0.731429-10.24-2.925714-2.194286-3.657143-0.731429-8.045714 2.925714-10.24l20.48-11.702858-20.48-11.702857c-3.657143-2.194286-4.388571-6.582857-2.925714-10.24 2.194286-3.657143 6.582857-4.388571 10.24-2.925714l20.48 11.702857v-24.137143c0-3.657143 3.657143-7.314286 7.314286-7.314285s7.314286 3.657143 7.314285 7.314285v24.137143l20.48-11.702857c3.657143-2.194286 8.045714-0.731429 10.24 2.925714 2.194286 3.657143 0.731429 8.045714-2.925714 10.24l-20.48 11.702857 20.48 11.702858c3.657143 2.194286 5.12 6.582857 2.925714 10.24zM425.691429 87.771429c-2.194286 3.657143-6.582857 4.388571-10.24 2.925714l-20.48-11.702857v24.137143c0 3.657143-3.657143 7.314286-7.314286 7.314285s-7.314286-3.657143-7.314286-7.314285v-24.137143l-20.48 11.702857c-3.657143 2.194286-8.045714 0.731429-10.24-2.925714-2.194286-3.657143-0.731429-8.045714 2.925714-10.24l20.48-11.702858-20.48-11.702857c-3.657143-2.194286-4.388571-6.582857-2.925714-10.24 2.194286-3.657143 6.582857-4.388571 10.24-2.925714l20.48 11.702857v-24.137143c0-3.657143 3.657143-7.314286 7.314286-7.314285s7.314286 3.657143 7.314286 7.314285v24.137143l20.48-11.702857c3.657143-2.194286 8.045714-0.731429 10.24 2.925714 2.194286 3.657143 0.731429 8.045714-2.925715 10.24l-20.48 11.702857 20.48 11.702858c3.657143 2.194286 5.12 6.582857 2.925715 10.24zM294.034286 87.771429c-2.194286 3.657143-6.582857 4.388571-10.24 2.925714l-20.48-11.702857v24.137143c0 3.657143-3.657143 7.314286-7.314286 7.314285s-7.314286-3.657143-7.314286-7.314285v-24.137143l-20.48 11.702857c-3.657143 2.194286-8.045714 0.731429-10.24-2.925714-2.194286-3.657143-0.731429-8.045714 2.925715-10.24l20.48-11.702858-20.48-11.702857c-3.657143-2.194286-4.388571-6.582857-2.925715-10.24 2.194286-3.657143 6.582857-4.388571 10.24-2.925714l20.48 11.702857v-24.137143c0-3.657143 3.657143-7.314286 7.314286-7.314285s7.314286 3.657143 7.314286 7.314285v24.137143l20.48-11.702857c3.657143-2.194286 8.045714-0.731429 10.24 2.925714 2.194286 3.657143 0.731429 8.045714-2.925715 10.24l-20.48 11.702857 20.48 11.702858c3.657143 2.194286 5.12 6.582857 2.925715 10.24zM689.005714 87.771429c-2.194286 3.657143-6.582857 4.388571-10.24 2.925714l-20.48-11.702857v24.137143c0 3.657143-3.657143 7.314286-7.314285 7.314285s-7.314286-3.657143-7.314286-7.314285v-24.137143l-20.48 11.702857c-3.657143 2.194286-8.045714 0.731429-10.24-2.925714-2.194286-3.657143-0.731429-8.045714 2.925714-10.24l20.48-11.702858-20.48-11.702857c-3.657143-2.194286-4.388571-6.582857-2.925714-10.24 2.194286-3.657143 6.582857-4.388571 10.24-2.925714l20.48 11.702857v-24.137143c0-3.657143 3.657143-7.314286 7.314286-7.314285s7.314286 3.657143 7.314285 7.314285v24.137143l20.48-11.702857c3.657143-2.194286 8.045714-0.731429 10.24 2.925714 2.194286 3.657143 0.731429 8.045714-2.925714 10.24l-20.48 11.702857 20.48 11.702858c3.657143 2.194286 5.12 6.582857 2.925714 10.24zM820.662857 87.771429c-2.194286 3.657143-6.582857 4.388571-10.24 2.925714l-20.48-11.702857v24.137143c0 3.657143-3.657143 7.314286-7.314286 7.314285s-7.314286-3.657143-7.314285-7.314285v-24.137143l-20.48 11.702857c-3.657143 2.194286-8.045714 0.731429-10.24-2.925714-2.194286-3.657143-0.731429-8.045714 2.925714-10.24l20.48-11.702858-20.48-11.702857c-3.657143-2.194286-4.388571-6.582857-2.925714-10.24 2.194286-3.657143 6.582857-4.388571 10.24-2.925714l20.48 11.702857v-24.137143c0-3.657143 3.657143-7.314286 7.314285-7.314285s7.314286 3.657143 7.314286 7.314285v24.137143l20.48-11.702857c3.657143-2.194286 8.045714-0.731429 10.24 2.925714 2.194286 3.657143 0.731429 8.045714-2.925714 10.24l-20.48 11.702857 20.48 11.702858c3.657143 2.194286 5.12 6.582857 2.925714 10.24z"  horiz-adv-x="1024" />

    
    <glyph glyph-name="tianqitubiao_qing" unicode="&#58901;" d="M512 822.857143l13.897143-47.542857c25.6-87.771429 131.657143-122.148571 204.068571-66.56l39.497143 30.72-16.822857-46.811429c-30.72-86.308571 35.108571-176.274286 126.537143-174.08l49.737143 1.462857-40.96-27.794285c-75.337143-51.931429-75.337143-163.108571 0-215.04l40.96-27.794286-49.737143 1.462857c-91.428571 2.194286-157.257143-87.771429-126.537143-174.08l16.822857-46.811429-39.497143 30.72c-72.411429 55.588571-178.468571 21.211429-204.068571-66.56L512-54.857143l-13.897143 47.542857c-25.6 87.771429-131.657143 122.148571-204.068571 66.56l-39.497143-30.72 16.822857 46.811429c30.72 86.308571-35.108571 176.274286-126.537143 174.08l-49.737143-1.462857 40.96 27.794285c75.337143 51.931429 75.337143 163.108571 0 215.04L95.085714 518.582857l49.737143-1.462857C236.251429 515.657143 301.348571 605.622857 270.628571 691.931429l-16.822857 46.811428 39.497143-30.72c72.411429-55.588571 178.468571-21.211429 204.068572 66.56l14.628571 48.274286zM512 384m-290.377143 0a290.377143 290.377143 0 1 1 580.754286 0 290.377143 290.377143 0 1 1-580.754286 0Z"  horiz-adv-x="1024" />

    
    <glyph glyph-name="tianqitubiao_leizhenyu" unicode="&#58902;" d="M731.428571 599.771429c-5.12 0-9.508571 0-14.628571-0.731429-32.182857 85.577143-114.834286 147.017143-212.114286 147.017143-125.074286 0-226.742857-101.668571-226.742857-226.742857 0-8.777143 0.731429-17.554286 1.462857-26.331429-12.434286 2.925714-24.868571 4.388571-38.034285 4.388572-97.28 0-175.542857-78.262857-175.542858-175.542858s78.262857-175.542857 175.542858-175.542857h490.057142c125.074286 0 226.742857 101.668571 226.742858 226.742857s-101.668571 226.742857-226.742858 226.742858zM486.4 58.514286c0-20.48 13.165714-36.571429 29.257143-36.571429s29.257143 16.091429 29.257143 36.571429-29.257143 51.2-29.257143 51.2-29.257143-30.72-29.257143-51.2zM384 58.514286c0-20.48 13.165714-36.571429 29.257143-36.571429s29.257143 16.091429 29.257143 36.571429-29.257143 51.2-29.257143 51.2-29.257143-30.72-29.257143-51.2zM588.8 58.514286c0-20.48 13.165714-36.571429 29.257143-36.571429s29.257143 16.091429 29.257143 36.571429-29.257143 51.2-29.257143 51.2-29.257143-30.72-29.257143-51.2zM510.537143 746.057143L351.085714 356.205714h185.782857l-106.057142-334.262857 238.445714 445.44h-212.114286z"  horiz-adv-x="1024" />

    
    <glyph glyph-name="tianqitubiao_dayu" unicode="&#58903;" d="M731.428571 599.771429c-5.12 0-9.508571 0-14.628571-0.731429-32.182857 85.577143-114.834286 147.017143-212.114286 147.017143-125.074286 0-226.742857-101.668571-226.742857-226.742857 0-8.777143 0.731429-17.554286 1.462857-26.331429-12.434286 2.925714-24.868571 4.388571-38.034285 4.388572-97.28 0-175.542857-78.262857-175.542858-175.542858s78.262857-175.542857 175.542858-175.542857h490.057142c125.074286 0 226.742857 101.668571 226.742858 226.742857s-101.668571 226.742857-226.742858 226.742858zM482.742857 58.514286c0-20.48 13.165714-36.571429 29.257143-36.571429s29.257143 16.091429 29.257143 36.571429-29.257143 51.2-29.257143 51.2-29.257143-30.72-29.257143-51.2zM380.342857 58.514286c0-20.48 13.165714-36.571429 29.257143-36.571429s29.257143 16.091429 29.257143 36.571429-29.257143 51.2-29.257143 51.2-29.257143-30.72-29.257143-51.2zM277.942857 58.514286c0-20.48 13.165714-36.571429 29.257143-36.571429s29.257143 16.091429 29.257143 36.571429-29.257143 51.2-29.257143 51.2-29.257143-30.72-29.257143-51.2zM585.142857 58.514286c0-20.48 13.165714-36.571429 29.257143-36.571429s29.257143 16.091429 29.257143 36.571429-29.257143 51.2-29.257143 51.2-29.257143-30.72-29.257143-51.2zM687.542857 58.514286c0-20.48 13.165714-36.571429 29.257143-36.571429s29.257143 16.091429 29.257143 36.571429-29.257143 51.2-29.257143 51.2-29.257143-30.72-29.257143-51.2z"  horiz-adv-x="1024" />

    
    <glyph glyph-name="tianqitubiao_yin" unicode="&#58905;" d="M731.428571 537.6c-5.12 0-9.508571 0-14.628571-0.731429C684.617143 623.177143 601.965714 683.885714 504.685714 683.885714c-125.074286 0-226.742857-101.668571-226.742857-226.742857 0-8.777143 0.731429-17.554286 1.462857-26.331428-12.434286 2.925714-24.868571 4.388571-38.034285 4.388571C144.091429 435.2 65.828571 356.937143 65.828571 259.657143s78.262857-175.542857 175.542858-175.542857h490.057142c125.074286 0 226.742857 101.668571 226.742858 226.742857s-101.668571 226.742857-226.742858 226.742857z"  horiz-adv-x="1024" />

    
    <glyph glyph-name="tianqitubiao_dafeng" unicode="&#58906;" d="M677.302857 313.782857h49.005714c46.08 0 84.114286 38.034286 84.114286 84.114286s-38.034286 84.114286-84.114286 84.114286c-10.24 0-18.285714-8.045714-18.285714-18.285715s8.045714-18.285714 18.285714-18.285714c26.331429 0 47.542857-21.211429 47.542858-47.542857s-21.211429-47.542857-47.542858-47.542857h-32.182857c4.388571 15.36 7.314286 31.451429 7.314286 47.542857 0 88.502857-71.68 160.182857-160.182857 160.182857h-10.24c-21.942857 59.977143-80.457143 103.131429-149.211429 103.131429-88.502857 0-160.182857-71.68-160.182857-160.182858 0-6.582857 0.731429-12.434286 0.731429-18.285714-8.777143 2.194286-17.554286 2.925714-27.062857 2.925714-68.022857 0-123.611429-55.588571-123.611429-123.611428s55.588571-123.611429 123.611429-123.611429H724.114286c26.331429 0 47.542857-21.211429 47.542857-47.542857s-21.211429-47.542857-47.542857-47.542857c-10.24 0-18.285714-8.045714-18.285715-18.285714s8.045714-18.285714 18.285715-18.285715c46.08 0 84.114286 38.034286 84.114285 84.114286S770.194286 275.017143 724.114286 275.017143H643.657143c13.165714 10.971429 24.868571 24.137143 33.645714 38.765714zM867.474286 444.708571c-10.24 0-18.285714-8.045714-18.285715-18.285714s8.045714-18.285714 18.285715-18.285714c26.331429 0 47.542857-21.211429 47.542857-47.542857s-21.211429-47.542857-47.542857-47.542857c-10.24 0-18.285714-8.045714-18.285715-18.285715s8.045714-18.285714 18.285715-18.285714c46.08 0 84.114286 38.034286 84.114285 84.114286s-38.034286 84.114286-84.114285 84.114285z"  horiz-adv-x="1024" />

    
    <glyph glyph-name="tianqitubiao_yujiaxue" unicode="&#58907;" d="M636.342857 58.514286c0-20.48 13.165714-36.571429 29.257143-36.571429s29.257143 16.091429 29.257143 36.571429-29.257143 51.2-29.257143 51.2-29.257143-30.72-29.257143-51.2zM343.771429 58.514286c0-20.48 13.165714-36.571429 29.257142-36.571429s29.257143 16.091429 29.257143 36.571429-29.257143 51.2-29.257143 51.2-29.257143-30.72-29.257142-51.2zM731.428571 599.771429c-5.12 0-9.508571 0-14.628571-0.731429-32.182857 85.577143-114.834286 147.017143-212.114286 147.017143-125.074286 0-226.742857-101.668571-226.742857-226.742857 0-8.777143 0.731429-17.554286 1.462857-26.331429-12.434286 2.925714-24.868571 4.388571-38.034285 4.388572-97.28 0-175.542857-78.262857-175.542858-175.542858s78.262857-175.542857 175.542858-175.542857h490.057142c125.074286 0 226.742857 101.668571 226.742858 226.742857s-101.668571 226.742857-226.742858 226.742858zM557.348571 87.771429c-2.194286 3.657143-6.582857 4.388571-10.24 2.925714l-20.48-11.702857v24.137143c0 3.657143-3.657143 7.314286-7.314285 7.314285s-7.314286-3.657143-7.314286-7.314285v-24.137143l-20.48 11.702857c-3.657143 2.194286-8.045714 0.731429-10.24-2.925714-2.194286-3.657143-0.731429-8.045714 2.925714-10.24l20.48-11.702858-20.48-11.702857c-3.657143-2.194286-4.388571-6.582857-2.925714-10.24 2.194286-3.657143 6.582857-4.388571 10.24-2.925714l20.48 11.702857v-24.137143c0-3.657143 3.657143-7.314286 7.314286-7.314285s7.314286 3.657143 7.314285 7.314285v24.137143l20.48-11.702857c3.657143-2.194286 8.045714-0.731429 10.24 2.925714 2.194286 3.657143 0.731429 8.045714-2.925714 10.24l-20.48 11.702857 20.48 11.702858c3.657143 2.194286 5.12 6.582857 2.925714 10.24z"  horiz-adv-x="1024" />

    
    <glyph glyph-name="tianqitubiao_xiaoyu" unicode="&#58908;" d="M731.428571 599.771429c-5.12 0-9.508571 0-14.628571-0.731429-32.182857 85.577143-114.834286 147.017143-212.114286 147.017143-125.074286 0-226.742857-101.668571-226.742857-226.742857 0-8.777143 0.731429-17.554286 1.462857-26.331429-12.434286 2.925714-24.868571 4.388571-38.034285 4.388572-97.28 0-175.542857-78.262857-175.542858-175.542858s78.262857-175.542857 175.542858-175.542857h490.057142c125.074286 0 226.742857 101.668571 226.742858 226.742857s-101.668571 226.742857-226.742858 226.742858zM482.742857 58.514286c0-20.48 13.165714-36.571429 29.257143-36.571429s29.257143 16.091429 29.257143 36.571429-29.257143 51.2-29.257143 51.2-29.257143-30.72-29.257143-51.2z"  horiz-adv-x="1024" />

    
    <glyph glyph-name="tianqitubiao_wanduoyun" unicode="&#58910;" d="M908.434286 206.994286c-69.485714-114.102857-194.56-189.44-337.92-189.44-217.965714 0-394.971429 177.005714-394.971429 395.702857 0 143.36 76.068571 268.434286 189.44 337.92-36.571429-60.708571-57.782857-130.925714-57.782857-206.262857 0-218.697143 177.005714-395.702857 395.702857-395.702857 75.337143 0 145.554286 21.211429 205.531429 57.782857zM881.371429 746.057143l13.165714-24.137143 24.137143-13.165714-24.137143-13.165715-13.165714-24.868571-13.165715 24.868571-24.137143 13.165715 24.137143 13.165714zM637.805714 683.154286l9.508572-18.285715 18.285714-9.508571-18.285714-10.24-9.508572-18.285714-10.24 18.285714-17.554285 10.24 17.554285 9.508571zM798.72 566.125714l7.314286-13.165714 13.165714-7.314286-13.165714-7.314285-7.314286-13.897143-7.314286 13.897143-13.165714 7.314285 13.165714 7.314286zM731.428571 471.04c-5.12 0-9.508571 0-14.628571-0.731429-32.182857 85.577143-114.834286 147.017143-212.114286 147.017143-125.074286 0-226.742857-101.668571-226.742857-226.742857 0-8.777143 0.731429-17.554286 1.462857-26.331428-12.434286 2.925714-24.868571 4.388571-38.034285 4.388571-97.28 0-175.542857-78.262857-175.542858-175.542857s78.262857-175.542857 175.542858-175.542857h490.057142c125.074286 0 226.742857 101.668571 226.742858 226.742857s-101.668571 226.742857-226.742858 226.742857z"  horiz-adv-x="1024" />

    
    <glyph glyph-name="tianqitubiao_bingbao" unicode="&#58911;" d="M731.428571 599.771429c-5.12 0-9.508571 0-14.628571-0.731429-32.182857 85.577143-114.834286 147.017143-212.114286 147.017143-125.074286 0-226.742857-101.668571-226.742857-226.742857 0-8.777143 0.731429-17.554286 1.462857-26.331429-12.434286 2.925714-24.868571 4.388571-38.034285 4.388572-97.28 0-175.542857-78.262857-175.542858-175.542858s78.262857-175.542857 175.542858-175.542857h490.057142c125.074286 0 226.742857 101.668571 226.742858 226.742857s-101.668571 226.742857-226.742858 226.742858zM365.714286 58.514286m-36.571429 0a36.571429 36.571429 0 1 1 73.142857 0 36.571429 36.571429 0 1 1-73.142857 0ZM512 58.514286m-36.571429 0a36.571429 36.571429 0 1 1 73.142858 0 36.571429 36.571429 0 1 1-73.142858 0ZM658.285714 58.514286m-36.571428 0a36.571429 36.571429 0 1 1 73.142857 0 36.571429 36.571429 0 1 1-73.142857 0Z"  horiz-adv-x="1024" />

    
    <glyph glyph-name="tianqi1" unicode="&#58909;" d="M512 896c409.6 0 512-102.4 512-512S921.6-128 512-128 0-25.6 0 384 102.4 896 512 896zM618.9056 197.690514l-145.601097-184.799817 42.399451 140.00128H434.105783l33.598903 78.39744h100.796708l-19.198537-33.598903zM736.618789 254.150949v-0.462263h-414.632229c-77.367589 0-139.995429 62.633691-139.995429 140.00128 0 77.37344 62.739017 140.00128 139.995429 140.00128 10.064457 0 19.889006-1.141029 29.4912-3.083703 10.8544 86.969783 85.021257 154.284617 175.080594 154.284617 89.602926 0 163.547429-66.741394 174.85824-153.260617a137.859657 137.859657 0 0 0 24.00256 2.059703c77.367589 0 139.995429-62.62784 139.995429-140.00128 0-73.599269-56.682789-133.822171-128.795794-139.539017zM607.202743 232.799086l-145.601097-184.799817 42.399451 140.00128H422.402926l33.598903 78.39744h100.796708l-19.198537-33.598903zM724.915931 289.25952v-0.462263h-414.632228c-77.367589 0-139.995429 62.633691-139.995429 140.00128 0 77.37344 62.739017 140.00128 139.995429 140.00128 10.064457 0 19.889006-1.141029 29.4912-3.083703 10.8544 86.969783 85.021257 154.284617 175.080594 154.284617 89.602926 0 163.547429-66.741394 174.85824-153.260617a137.859657 137.859657 0 0 0 24.00256 2.059703c77.367589 0 139.995429-62.62784 139.995429-140.00128 0-73.599269-56.682789-133.822171-128.795795-139.539017z"  horiz-adv-x="1024" />

    


  </font>
</defs>
</svg>
